<?xml version="1.0" encoding="UTF-8" standalone="no"?><!DOCTYPE svg PUBLIC "-//W3C//DTD SVG 1.1//EN" "http://www.w3.org/Graphics/SVG/1.1/DTD/svg11.dtd"><svg xmlns="http://www.w3.org/2000/svg" xmlns:xlink="http://www.w3.org/1999/xlink" version="1.1" width="48pt" height="50pt" viewBox="0 0 48 50"><g enable-background="new"><path transform="matrix(1,0,0,-1,25,36)" d="M 0 15 C 0 19.418278 3.581722 23 8 23 C 12.418278 23 16 19.418278 16 15 L 16 7.999999 C 16 3.581722 12.418278 0 8 0 C 3.581722 0 0 3.581722 0 8 L 0 15 Z" fill="#ffffff"/><path transform="matrix(1,0,0,-1,25,36)" d="M 0 15 C 0 19.418278 3.581722 23 8 23 C 12.418278 23 16 19.418278 16 15 L 16 7.999999 C 16 3.581722 12.418278 0 8 0 C 3.581722 0 0 3.581722 0 8 L 0 15 Z" fill="#ffffff"/><path transform="matrix(1,0,0,-1,23,38)" d="M 20 17 L 20 10 C 20 4.477154 15.522847 0 10 0 C 4.477153 0 0 4.477154 0 10 L 0 17 C 0 22.522849 4.477153 27 10 27 C 15.522847 27 20 22.522847 20 17 Z M 10 25 C 5.581722 25 2 21.418278 2 17 L 2 10 C 2 5.581722 5.581722 2 10 2 C 14.418278 2 18 5.581722 18 10 L 18 17 C 18 21.418278 14.418278 25 10 25 Z" fill="#afafaf" fill-rule="evenodd"/><path transform="matrix(1,0,0,-1,27,29)" d="M 0 6 C 0 7.656855 1.343146 9 3 9 C 4.656854 9 6 7.656854 6 6 L 6 3 C 6 1.343146 4.656854 0 3 0 C 1.343146 0 0 1.343146 0 3 L 0 6 Z" fill="#4b4b4b"/><path transform="matrix(1,0,0,-1,25,31)" d="M 10 8 L 10 5 C 10 2.238576 7.761424 0 5 0 C 2.238576 0 0 2.238577 0 5 L 0 8 C 0 10.761424 2.238576 13 5 13 C 7.761424 13 10 10.761423 10 8 Z M 5 11 C 3.343146 11 2 9.656855 2 8 L 2 5 C 2 3.343145 3.343146 2 5 2 C 6.656854 2 8 3.343145 8 5 L 8 8 C 8 9.656855 6.656854 11 5 11 Z" fill="#1899d6" fill-rule="evenodd"/><path transform="matrix(1,0,0,-1,26.625,23.375)" d="M 1.875 3.75 C .839466 3.75 0 2.910534 0 1.875 C 0 .839466 .839466 0 1.875 0 C 2.910534 0 3.75 .839466 3.75 1.875 C 3.75 2.910534 2.910534 3.75 1.875 3.75 Z" fill="#ffffff" fill-rule="evenodd"/><path transform="matrix(1,0,0,-1,7,36)" d="M 0 15 C 0 19.418278 3.581722 23 8 23 C 12.418278 23 16 19.418278 16 15 L 16 7.999999 C 16 3.581722 12.418278 0 8 0 C 3.581722 0 0 3.581722 0 8 L 0 15 Z" fill="#ffffff"/><path transform="matrix(1,0,0,-1,7,36)" d="M 0 15 C 0 19.418278 3.581722 23 8 23 C 12.418278 23 16 19.418278 16 15 L 16 7.999999 C 16 3.581722 12.418278 0 8 0 C 3.581722 0 0 3.581722 0 8 L 0 15 Z" fill="#ffffff"/><path transform="matrix(1,0,0,-1,5,38)" d="M 20 17 L 20 10 C 20 4.477154 15.522847 0 10 0 C 4.477153 0 0 4.477154 0 10 L 0 17 C 0 22.522849 4.477153 27 10 27 C 15.522847 27 20 22.522847 20 17 Z M 10 25 C 5.581722 25 2 21.418278 2 17 L 2 10 C 2 5.581722 5.581722 2 10 2 C 14.418278 2 18 5.581722 18 10 L 18 17 C 18 21.418278 14.418278 25 10 25 Z" fill="#afafaf" fill-rule="evenodd"/><path transform="matrix(1,0,0,-1,9,29)" d="M 0 6 C 0 7.656855 1.343146 9 3 9 C 4.656854 9 6 7.656854 6 6 L 6 3 C 6 1.343146 4.656854 0 3 0 C 1.343146 0 0 1.343146 0 3 L 0 6 Z" fill="#4b4b4b"/><path transform="matrix(1,0,0,-1,7,31)" d="M 10 8 L 10 5 C 10 2.238576 7.761424 0 5 0 C 2.238576 0 0 2.238577 0 5 L 0 8 C 0 10.761424 2.238576 13 5 13 C 7.761424 13 10 10.761423 10 8 Z M 5 11 C 3.343146 11 2 9.656855 2 8 L 2 5 C 2 3.343145 3.343146 2 5 2 C 6.656854 2 8 3.343145 8 5 L 8 8 C 8 9.656855 6.656854 11 5 11 Z" fill="#1899d6" fill-rule="evenodd"/><path transform="matrix(1,0,0,-1,8.625,23.375)" d="M 1.875 3.75 C .839466 3.75 0 2.910534 0 1.875 C 0 .839466 .839466 0 1.875 0 C 2.910534 0 3.75 .839466 3.75 1.875 C 3.75 2.910534 2.910534 3.75 1.875 3.75 Z" fill="#ffffff" fill-rule="evenodd"/></g></svg>