<?xml version="1.0" encoding="UTF-8"?><svg width="1085px" height="837px" viewBox="0 0 1085 837" version="1.1" xmlns="http://www.w3.org/2000/svg" xmlns:xlink="http://www.w3.org/1999/xlink"><title>zh</title><desc>Created with Sketch.</desc><g id="zh" stroke="none" stroke-width="1" fill="none" fill-rule="evenodd"><g id="Group-3"><path d="M194.727078,0 L890.272922,0 C957.98377,0 982.537359,7.05010505 1007.29143,20.2887285 C1032.04551,33.527352 1051.47265,52.9544938 1064.71127,77.7085675 C1077.94989,102.462641 1085,127.01623 1085,194.727078 L1085,642.272922 C1085,709.98377 1077.94989,734.537359 1064.71127,759.291433 C1051.47265,784.045506 1032.04551,803.472648 1007.29143,816.711271 C982.537359,829.949895 957.98377,837 890.272922,837 L194.727078,837 C127.01623,837 102.462641,829.949895 77.7085675,816.711271 C52.9544938,803.472648 33.527352,784.045506 20.2887285,759.291433 C7.05010505,734.537359 0,709.98377 0,642.272922 L0,194.727078 C0,127.01623 7.05010505,102.462641 20.2887285,77.7085675 C33.527352,52.9544938 52.9544938,33.527352 77.7085675,20.2887285 C102.462641,7.05010505 127.01623,0 194.727078,0 Z" id="Rectangle-3" fill="#FF4B4B"/><g id="Group-2" transform="translate(124.000000, 62.000000)" fill="#FFC300" fill-rule="nonzero"><g id="Group" transform="translate(217.000000, 0.000000)"><path d="M68.6497793,111.151057 L50.855564,120.50603 C45.2681728,123.443495 38.3574112,121.295306 35.4199459,115.707915 C34.2502318,113.482986 33.8465924,110.934508 34.271516,108.457014 L37.6699087,88.6428638 C37.9933042,86.7573233 37.3681787,84.8333847 35.9982533,83.4980374 L21.6024306,69.4655785 C17.0821363,65.0593805 16.9896429,57.8230286 21.3958409,53.3027342 C23.1504121,51.5027293 25.4494277,50.3313223 27.9369733,49.9698608 L47.8315109,47.0790153 C49.7247012,46.8039186 51.3613012,45.6148591 52.2079616,43.8993377 L61.1050693,25.8718285 C63.8987649,20.211183 70.7523624,17.8870609 76.4130079,20.6807564 C78.6671067,21.7932207 80.4916158,23.6177298 81.60408,25.8718285 L90.5011877,43.8993377 C91.3478481,45.6148591 92.9844481,46.8039186 94.8776384,47.0790153 L114.772176,49.9698608 C121.019069,50.8775875 125.347319,56.6775529 124.439592,62.9244461 C124.078131,65.4119917 122.906724,67.7110073 121.106719,69.4655785 L106.710896,83.4980374 C105.340971,84.8333847 104.715845,86.7573233 105.039241,88.6428638 L108.437633,108.457014 C109.50473,114.678665 105.326138,120.587363 99.1044864,121.65446 C96.6269922,122.079383 94.0785138,121.675744 91.8535853,120.50603 L74.0593699,111.151057 C72.3660491,110.260826 70.3431002,110.260826 68.6497793,111.151057 Z" id="Star-Copy" transform="translate(71.355317, 70.659595) rotate(19.000000) translate(-71.355317, -70.659595)"/><path d="M183.294463,213.474403 L165.500247,222.829376 C159.912856,225.766841 153.002094,223.618652 150.064629,218.031261 C148.894915,215.806332 148.491276,213.257854 148.916199,210.78036 L152.314592,190.96621 C152.637987,189.080669 152.012862,187.15673 150.642937,185.821383 L136.247114,171.788924 C131.726819,167.382726 131.634326,160.146374 136.040524,155.62608 C137.795095,153.826075 140.094111,152.654668 142.581657,152.293207 L162.476194,149.402361 C164.369384,149.127264 166.005984,147.938205 166.852645,146.222683 L175.749753,128.195174 C178.543448,122.534529 185.397046,120.210407 191.057691,123.004102 C193.31179,124.116566 195.136299,125.941076 196.248763,128.195174 L205.145871,146.222683 C205.992531,147.938205 207.629131,149.127264 209.522322,149.402361 L229.416859,152.293207 C235.663752,153.200933 239.992002,159.000899 239.084275,165.247792 C238.722814,167.735338 237.551407,170.034353 235.751402,171.788924 L221.355579,185.821383 C219.985654,187.15673 219.360528,189.080669 219.683924,190.96621 L223.082317,210.78036 C224.149413,217.002011 219.970821,222.910709 213.74917,223.977806 C211.271675,224.402729 208.723197,223.99909 206.498269,222.829376 L188.704053,213.474403 C187.010732,212.584172 184.987783,212.584172 183.294463,213.474403 Z" id="Star-Copy" transform="translate(186.000000, 172.982941) rotate(-19.000000) translate(-186.000000, -172.982941)"/><path d="M68.6497793,462.687483 L50.855564,472.042456 C45.2681728,474.979921 38.3574112,472.831732 35.4199459,467.244341 C34.2502318,465.019412 33.8465924,462.470934 34.271516,459.99344 L37.6699087,440.17929 C37.9933042,438.293749 37.3681787,436.36981 35.9982533,435.034463 L21.6024306,421.002004 C17.0821363,416.595806 16.9896429,409.359454 21.3958409,404.83916 C23.1504121,403.039155 25.4494277,401.867748 27.9369733,401.506287 L47.8315109,398.615441 C49.7247012,398.340344 51.3613012,397.151285 52.2079616,395.435763 L61.1050693,377.408254 C63.8987649,371.747609 70.7523624,369.423487 76.4130079,372.217182 C78.6671067,373.329646 80.4916158,375.154156 81.60408,377.408254 L90.5011877,395.435763 C91.3478481,397.151285 92.9844481,398.340344 94.8776384,398.615441 L114.772176,401.506287 C121.019069,402.414013 125.347319,408.213979 124.439592,414.460872 C124.078131,416.948417 122.906724,419.247433 121.106719,421.002004 L106.710896,435.034463 C105.340971,436.36981 104.715845,438.293749 105.039241,440.17929 L108.437633,459.99344 C109.50473,466.215091 105.326138,472.123789 99.1044864,473.190886 C96.6269922,473.615809 94.0785138,473.21217 91.8535853,472.042456 L74.0593699,462.687483 C72.3660491,461.797252 70.3431002,461.797252 68.6497793,462.687483 Z" id="Star-Copy" transform="translate(71.355317, 422.196021) rotate(19.000000) translate(-71.355317, -422.196021)"/><path d="M183.294463,362.295441 L165.500247,371.650414 C159.912856,374.587879 153.002094,372.43969 150.064629,366.852299 C148.894915,364.62737 148.491276,362.078892 148.916199,359.601398 L152.314592,339.787248 C152.637987,337.901707 152.012862,335.977769 150.642937,334.642421 L136.247114,320.609962 C131.726819,316.203764 131.634326,308.967413 136.040524,304.447118 C137.795095,302.647113 140.094111,301.475706 142.581657,301.114245 L162.476194,298.223399 C164.369384,297.948303 166.005984,296.759243 166.852645,295.043722 L175.749753,277.016212 C178.543448,271.355567 185.397046,269.031445 191.057691,271.82514 C193.31179,272.937605 195.136299,274.762114 196.248763,277.016212 L205.145871,295.043722 C205.992531,296.759243 207.629131,297.948303 209.522322,298.223399 L229.416859,301.114245 C235.663752,302.021972 239.992002,307.821937 239.084275,314.06883 C238.722814,316.556376 237.551407,318.855391 235.751402,320.609962 L221.355579,334.642421 C219.985654,335.977769 219.360528,337.901707 219.683924,339.787248 L223.082317,359.601398 C224.149413,365.823049 219.970821,371.731747 213.74917,372.798844 C211.271675,373.223767 208.723197,372.820128 206.498269,371.650414 L188.704053,362.295441 C187.010732,361.40521 184.987783,361.40521 183.294463,362.295441 Z" id="Star-Copy"/></g><path d="M117.989344,328.659989 L78.4466429,349.448817 C66.0302182,355.976518 50.6729702,351.202764 44.1452694,338.786339 C41.5459047,333.842054 40.6489284,328.178768 41.5932029,322.673226 L49.1451868,278.641781 C49.8638435,274.451691 48.4746756,270.176272 45.430397,267.208834 L13.43968,236.025591 C3.39458137,226.23404 3.18904056,210.153258 12.9805917,200.10816 C16.8796388,196.108149 21.9885623,193.505022 27.5164415,192.701774 L71.726525,186.277673 C75.9336146,185.666347 79.5705034,183.023993 81.4519711,179.211723 L101.223321,139.150591 C107.431534,126.571379 122.661751,121.406663 135.240963,127.614876 C140.250071,130.087019 144.304536,134.141483 146.776679,139.150591 L166.548029,179.211723 C168.429497,183.023993 172.066385,185.666347 176.273475,186.277673 L220.483559,192.701774 C234.365543,194.718945 243.983876,207.607757 241.966705,221.489742 C241.163458,227.017621 238.560331,232.126544 234.56032,236.025591 L202.569603,267.208834 C199.525324,270.176272 198.136157,274.451691 198.854813,278.641781 L206.406797,322.673226 C208.778123,336.499118 199.492363,349.629557 185.666471,352.000884 C180.160928,352.945158 174.497643,352.048182 169.553357,349.448817 L130.010656,328.659989 C126.247721,326.681697 121.752279,326.681697 117.989344,328.659989 Z" id="Star"/></g></g></g></svg>